<mxfile host="app.diagrams.net" modified="2020-10-20T02:47:15.223Z" agent="5.0 (Windows NT 10.0; Win64; x64) AppleWebKit/537.36 (KHTML, like Gecko) Chrome/86.0.4240.75 Safari/537.36" etag="w8mA1JETbSHD-mn7jFeA" version="13.8.0" type="github">
  <diagram id="vfC83qlep_2VxpRmdZ0d" name="Page-1">
    <mxGraphModel dx="2249" dy="762" grid="1" gridSize="10" guides="1" tooltips="1" connect="1" arrows="1" fold="1" page="1" pageScale="1" pageWidth="827" pageHeight="1169" math="0" shadow="0">
      <root>
        <mxCell id="0" />
        <mxCell id="1" parent="0" />
        <mxCell id="BUM0f-G8DxKyK3JZcNAQ-39" value="" style="rounded=0;whiteSpace=wrap;html=1;" parent="1" vertex="1">
          <mxGeometry x="-270" y="230" width="1160" height="480" as="geometry" />
        </mxCell>
        <mxCell id="BUM0f-G8DxKyK3JZcNAQ-1" value="" style="rounded=0;whiteSpace=wrap;html=1;" parent="1" vertex="1">
          <mxGeometry x="70" y="280" width="670" height="60" as="geometry" />
        </mxCell>
        <mxCell id="BUM0f-G8DxKyK3JZcNAQ-2" value="" style="rounded=0;whiteSpace=wrap;html=1;" parent="1" vertex="1">
          <mxGeometry x="70" y="530" width="670" height="60" as="geometry" />
        </mxCell>
        <mxCell id="BUM0f-G8DxKyK3JZcNAQ-3" value="" style="rounded=0;whiteSpace=wrap;html=1;" parent="1" vertex="1">
          <mxGeometry x="70" y="400" width="670" height="60" as="geometry" />
        </mxCell>
        <mxCell id="BUM0f-G8DxKyK3JZcNAQ-58" style="edgeStyle=orthogonalEdgeStyle;rounded=0;orthogonalLoop=1;jettySize=auto;html=1;exitX=1;exitY=0;exitDx=0;exitDy=0;entryX=0;entryY=1;entryDx=0;entryDy=0;" parent="1" source="BUM0f-G8DxKyK3JZcNAQ-8" target="BUM0f-G8DxKyK3JZcNAQ-13" edge="1">
          <mxGeometry relative="1" as="geometry">
            <Array as="points">
              <mxPoint x="240" y="545" />
              <mxPoint x="240" y="435" />
              <mxPoint x="354" y="435" />
            </Array>
          </mxGeometry>
        </mxCell>
        <mxCell id="BUM0f-G8DxKyK3JZcNAQ-8" value="&lt;font size=&quot;1&quot;&gt;beforeRouteEnter&lt;/font&gt;" style="rounded=1;whiteSpace=wrap;html=1;" parent="1" vertex="1">
          <mxGeometry x="100" y="545" width="120" height="30" as="geometry" />
        </mxCell>
        <mxCell id="BUM0f-G8DxKyK3JZcNAQ-9" value="&lt;font size=&quot;1&quot;&gt;beforeRouteUpdate&lt;/font&gt;" style="rounded=1;whiteSpace=wrap;html=1;" parent="1" vertex="1">
          <mxGeometry x="342.5" y="545" width="125" height="30" as="geometry" />
        </mxCell>
        <mxCell id="BUM0f-G8DxKyK3JZcNAQ-10" value="&lt;font size=&quot;1&quot;&gt;beforeRouteLeave&lt;/font&gt;" style="rounded=1;whiteSpace=wrap;html=1;" parent="1" vertex="1">
          <mxGeometry x="590" y="545" width="120" height="30" as="geometry" />
        </mxCell>
        <mxCell id="BUM0f-G8DxKyK3JZcNAQ-56" style="edgeStyle=orthogonalEdgeStyle;rounded=0;orthogonalLoop=1;jettySize=auto;html=1;exitX=0.5;exitY=1;exitDx=0;exitDy=0;entryX=0.5;entryY=0;entryDx=0;entryDy=0;" parent="1" source="BUM0f-G8DxKyK3JZcNAQ-11" target="BUM0f-G8DxKyK3JZcNAQ-8" edge="1">
          <mxGeometry relative="1" as="geometry" />
        </mxCell>
        <mxCell id="BUM0f-G8DxKyK3JZcNAQ-11" value="&lt;font size=&quot;1&quot;&gt;beforeEnter&lt;/font&gt;" style="rounded=1;whiteSpace=wrap;html=1;" parent="1" vertex="1">
          <mxGeometry x="100" y="415" width="120" height="30" as="geometry" />
        </mxCell>
        <mxCell id="VT2C3T3GJqH7yEmbvVMG-6" style="edgeStyle=orthogonalEdgeStyle;rounded=0;orthogonalLoop=1;jettySize=auto;html=1;exitX=0.5;exitY=1;exitDx=0;exitDy=0;entryX=0.5;entryY=0;entryDx=0;entryDy=0;" edge="1" parent="1" source="BUM0f-G8DxKyK3JZcNAQ-12" target="VT2C3T3GJqH7yEmbvVMG-2">
          <mxGeometry relative="1" as="geometry" />
        </mxCell>
        <mxCell id="BUM0f-G8DxKyK3JZcNAQ-12" value="&lt;font size=&quot;1&quot;&gt;afterEach&lt;/font&gt;" style="rounded=1;whiteSpace=wrap;html=1;" parent="1" vertex="1">
          <mxGeometry x="590" y="295" width="120" height="30" as="geometry" />
        </mxCell>
        <mxCell id="VT2C3T3GJqH7yEmbvVMG-4" style="edgeStyle=orthogonalEdgeStyle;rounded=0;orthogonalLoop=1;jettySize=auto;html=1;exitX=0.5;exitY=1;exitDx=0;exitDy=0;entryX=0;entryY=0.5;entryDx=0;entryDy=0;" edge="1" parent="1" source="BUM0f-G8DxKyK3JZcNAQ-13" target="BUM0f-G8DxKyK3JZcNAQ-48">
          <mxGeometry relative="1" as="geometry" />
        </mxCell>
        <mxCell id="BUM0f-G8DxKyK3JZcNAQ-13" value="&lt;font size=&quot;1&quot;&gt;beforeResolve&lt;/font&gt;" style="rounded=1;whiteSpace=wrap;html=1;" parent="1" vertex="1">
          <mxGeometry x="354" y="295" width="120" height="30" as="geometry" />
        </mxCell>
        <mxCell id="BUM0f-G8DxKyK3JZcNAQ-54" style="edgeStyle=orthogonalEdgeStyle;rounded=0;orthogonalLoop=1;jettySize=auto;html=1;exitX=0.5;exitY=1;exitDx=0;exitDy=0;entryX=0.5;entryY=0;entryDx=0;entryDy=0;" parent="1" source="BUM0f-G8DxKyK3JZcNAQ-14" target="BUM0f-G8DxKyK3JZcNAQ-41" edge="1">
          <mxGeometry relative="1" as="geometry" />
        </mxCell>
        <mxCell id="BUM0f-G8DxKyK3JZcNAQ-14" value="&lt;span style=&quot;font-size: x-small&quot;&gt;beforeEach&lt;/span&gt;" style="rounded=1;whiteSpace=wrap;html=1;" parent="1" vertex="1">
          <mxGeometry x="100" y="295" width="120" height="30" as="geometry" />
        </mxCell>
        <mxCell id="BUM0f-G8DxKyK3JZcNAQ-16" value="组件" style="text;html=1;strokeColor=none;fillColor=none;align=center;verticalAlign=middle;whiteSpace=wrap;rounded=0;" parent="1" vertex="1">
          <mxGeometry x="20" y="550" width="40" height="20" as="geometry" />
        </mxCell>
        <mxCell id="BUM0f-G8DxKyK3JZcNAQ-17" value="独享" style="text;html=1;strokeColor=none;fillColor=none;align=center;verticalAlign=middle;whiteSpace=wrap;rounded=0;" parent="1" vertex="1">
          <mxGeometry x="20" y="420" width="40" height="20" as="geometry" />
        </mxCell>
        <mxCell id="BUM0f-G8DxKyK3JZcNAQ-18" value="全局" style="text;html=1;strokeColor=none;fillColor=none;align=center;verticalAlign=middle;whiteSpace=wrap;rounded=0;" parent="1" vertex="1">
          <mxGeometry x="20" y="291" width="40" height="20" as="geometry" />
        </mxCell>
        <mxCell id="BUM0f-G8DxKyK3JZcNAQ-21" value="" style="rounded=0;whiteSpace=wrap;html=1;" parent="1" vertex="1">
          <mxGeometry x="-230" y="530" width="210" height="60" as="geometry" />
        </mxCell>
        <mxCell id="BUM0f-G8DxKyK3JZcNAQ-52" style="edgeStyle=orthogonalEdgeStyle;rounded=0;orthogonalLoop=1;jettySize=auto;html=1;exitX=1;exitY=0.5;exitDx=0;exitDy=0;entryX=0;entryY=0.5;entryDx=0;entryDy=0;" parent="1" source="BUM0f-G8DxKyK3JZcNAQ-25" target="BUM0f-G8DxKyK3JZcNAQ-14" edge="1">
          <mxGeometry relative="1" as="geometry">
            <Array as="points">
              <mxPoint x="10" y="560" />
              <mxPoint x="10" y="310" />
            </Array>
          </mxGeometry>
        </mxCell>
        <mxCell id="BUM0f-G8DxKyK3JZcNAQ-25" value="&lt;font size=&quot;1&quot;&gt;beforeRouteLeave&lt;/font&gt;" style="rounded=1;whiteSpace=wrap;html=1;" parent="1" vertex="1">
          <mxGeometry x="-170" y="545" width="120" height="30" as="geometry" />
        </mxCell>
        <mxCell id="BUM0f-G8DxKyK3JZcNAQ-35" value="旧路由组件" style="text;html=1;strokeColor=none;fillColor=none;align=center;verticalAlign=middle;whiteSpace=wrap;rounded=0;" parent="1" vertex="1">
          <mxGeometry x="-145" y="640" width="70" height="20" as="geometry" />
        </mxCell>
        <mxCell id="BUM0f-G8DxKyK3JZcNAQ-36" value="新路由组件" style="text;html=1;strokeColor=none;fillColor=none;align=center;verticalAlign=middle;whiteSpace=wrap;rounded=0;" parent="1" vertex="1">
          <mxGeometry x="360" y="640" width="75" height="20" as="geometry" />
        </mxCell>
        <mxCell id="BUM0f-G8DxKyK3JZcNAQ-40" value="重用组件" style="text;html=1;strokeColor=none;fillColor=none;align=center;verticalAlign=middle;whiteSpace=wrap;rounded=0;" parent="1" vertex="1">
          <mxGeometry x="210" y="365" width="90" height="20" as="geometry" />
        </mxCell>
        <mxCell id="BUM0f-G8DxKyK3JZcNAQ-55" style="edgeStyle=orthogonalEdgeStyle;rounded=0;orthogonalLoop=1;jettySize=auto;html=1;exitX=0.5;exitY=1;exitDx=0;exitDy=0;entryX=0.5;entryY=0;entryDx=0;entryDy=0;" parent="1" source="BUM0f-G8DxKyK3JZcNAQ-41" target="BUM0f-G8DxKyK3JZcNAQ-11" edge="1">
          <mxGeometry relative="1" as="geometry" />
        </mxCell>
        <mxCell id="BUM0f-G8DxKyK3JZcNAQ-41" value="&lt;font size=&quot;1&quot;&gt;beforeRouteUpdate&lt;/font&gt;" style="rounded=1;whiteSpace=wrap;html=1;" parent="1" vertex="1">
          <mxGeometry x="95" y="360" width="125" height="30" as="geometry" />
        </mxCell>
        <mxCell id="VT2C3T3GJqH7yEmbvVMG-5" style="edgeStyle=orthogonalEdgeStyle;rounded=0;orthogonalLoop=1;jettySize=auto;html=1;exitX=1;exitY=0.5;exitDx=0;exitDy=0;entryX=0.25;entryY=1;entryDx=0;entryDy=0;" edge="1" parent="1" source="BUM0f-G8DxKyK3JZcNAQ-48" target="BUM0f-G8DxKyK3JZcNAQ-12">
          <mxGeometry relative="1" as="geometry" />
        </mxCell>
        <mxCell id="BUM0f-G8DxKyK3JZcNAQ-48" value="导航被确认" style="rounded=1;whiteSpace=wrap;html=1;" parent="1" vertex="1">
          <mxGeometry x="490" y="355" width="80" height="30" as="geometry" />
        </mxCell>
        <mxCell id="BUM0f-G8DxKyK3JZcNAQ-60" style="edgeStyle=orthogonalEdgeStyle;rounded=0;orthogonalLoop=1;jettySize=auto;html=1;exitX=0.5;exitY=1;exitDx=0;exitDy=0;entryX=0.5;entryY=0;entryDx=0;entryDy=0;" parent="1" source="BUM0f-G8DxKyK3JZcNAQ-57" target="BUM0f-G8DxKyK3JZcNAQ-25" edge="1">
          <mxGeometry relative="1" as="geometry" />
        </mxCell>
        <mxCell id="BUM0f-G8DxKyK3JZcNAQ-57" value="导航被触发" style="rounded=1;whiteSpace=wrap;html=1;" parent="1" vertex="1">
          <mxGeometry x="-150" y="460" width="80" height="30" as="geometry" />
        </mxCell>
        <mxCell id="VT2C3T3GJqH7yEmbvVMG-1" value="" style="endArrow=none;dashed=1;html=1;exitX=1;exitY=0.5;exitDx=0;exitDy=0;entryX=0;entryY=0.5;entryDx=0;entryDy=0;" edge="1" parent="1" source="BUM0f-G8DxKyK3JZcNAQ-8" target="VT2C3T3GJqH7yEmbvVMG-2">
          <mxGeometry width="50" height="50" relative="1" as="geometry">
            <mxPoint x="270" y="675" as="sourcePoint" />
            <mxPoint x="320" y="625" as="targetPoint" />
            <Array as="points">
              <mxPoint x="400" y="510" />
            </Array>
          </mxGeometry>
        </mxCell>
        <mxCell id="VT2C3T3GJqH7yEmbvVMG-8" style="edgeStyle=orthogonalEdgeStyle;rounded=0;orthogonalLoop=1;jettySize=auto;html=1;exitX=1;exitY=0.5;exitDx=0;exitDy=0;" edge="1" parent="1" source="VT2C3T3GJqH7yEmbvVMG-2" target="VT2C3T3GJqH7yEmbvVMG-7">
          <mxGeometry relative="1" as="geometry" />
        </mxCell>
        <mxCell id="VT2C3T3GJqH7yEmbvVMG-2" value="next(回调函数)" style="rounded=1;whiteSpace=wrap;html=1;" vertex="1" parent="1">
          <mxGeometry x="605" y="480" width="90" height="30" as="geometry" />
        </mxCell>
        <mxCell id="VT2C3T3GJqH7yEmbvVMG-7" value="结束" style="rounded=1;whiteSpace=wrap;html=1;" vertex="1" parent="1">
          <mxGeometry x="780" y="480" width="80" height="30" as="geometry" />
        </mxCell>
      </root>
    </mxGraphModel>
  </diagram>
</mxfile>
